<svg width="16" height="16" viewBox="0 0 16 16" fill="none" xmlns="http://www.w3.org/2000/svg">
<g clip-path="url(#clip0_162_7)">
<path d="M0.93799 4.81299H4.18799V15.438H0.93799V4.81299ZM13.406 5.46899C14.052 5.82299 14.5833 6.35933 15 7.07799C15.4167 7.79666 15.625 8.53099 15.625 9.28099V15.437H12.344V9.28099C12.344 9.11433 12.2813 8.92666 12.156 8.71799C12.0307 8.50933 11.916 8.37399 11.812 8.31199C11.6453 8.20799 11.416 8.15599 11.124 8.15599C10.832 8.15599 10.6027 8.19766 10.436 8.28099L9.09199 8.93699V15.437H5.81099V4.81199H9.09199V5.31199C9.73799 5.01999 10.4673 4.88466 11.28 4.90599C12.0927 4.92733 12.802 5.11499 13.406 5.46899ZM2.56299 0.718994C3.02166 0.718994 3.40699 0.875327 3.71899 1.18799C4.03099 1.50066 4.18732 1.88599 4.18799 2.34399C4.18866 2.80199 4.03232 3.19266 3.71899 3.51599C3.40566 3.83933 3.02032 4.00066 2.56299 3.99999C2.10566 3.99933 1.72032 3.83799 1.40699 3.51599C1.09366 3.19399 0.937324 2.80333 0.93799 2.34399C0.938657 1.88466 1.09499 1.49933 1.40699 1.18799C1.71899 0.876661 2.10432 0.720327 2.56299 0.718994Z" fill="white"/>
</g>
<defs>
<clipPath id="clip0_162_7">
<rect width="16" height="16" fill="white"/>
</clipPath>
</defs>
</svg>
